<svg xmlns="http://www.w3.org/2000/svg" viewBox="0 0 24 24"><path d="M17.016 18q.797 0 1.383.609t.586 1.406-.586 1.383-1.383.586-1.406-.586-.609-1.383.609-1.406T17.016 18zM.984 2.016h3.281l.938 1.969h14.813q.422 0 .703.305t.281.727q0 .047-.141.469l-3.563 6.469q-.563 1.031-1.734 1.031H8.109l-.891 1.641-.047.141q0 .234.234.234h11.578v2.016h-12q-.797 0-1.383-.609t-.586-1.406q0-.469.234-.938l1.359-2.484-3.609-7.594H.982V2.018zm6 15.984q.797 0 1.406.609t.609 1.406-.609 1.383-1.406.586-1.383-.586-.586-1.383.586-1.406T6.984 18z"/></svg>