<svg xmlns="http://www.w3.org/2000/svg" width="24" height="24" viewBox="0 0 24 24"><path d="M12 15.516q1.453 0 2.484-1.031t1.031-2.484-1.031-2.484T12 8.486 9.516 9.517t-1.031 2.484 1.031 2.484T12 15.516zm7.453-2.532l2.109 1.641q.328.234.094.656L19.64 18.75q-.188.328-.609.188l-2.484-.984q-.984.703-1.688.984l-.375 2.625q-.094.422-.469.422H9.984q-.375 0-.469-.422l-.375-2.625q-.891-.375-1.688-.984l-2.484.984q-.422.141-.609-.188l-2.016-3.469q-.234-.422.094-.656l2.109-1.641q-.047-.328-.047-.984t.047-.984L2.437 9.375q-.328-.234-.094-.656L4.359 5.25q.188-.328.609-.188l2.484.984q.984-.703 1.688-.984l.375-2.625q.094-.422.469-.422h4.031q.375 0 .469.422l.375 2.625q.891.375 1.688.984l2.484-.984q.422-.141.609.188l2.016 3.469q.234.422-.094.656l-2.109 1.641q.047.328.047.984t-.047.984z"/></svg>